<svg version="1.1" id="Layer_1" xmlns="http://www.w3.org/2000/svg" xmlns:xlink="http://www.w3.org/1999/xlink" x="0px" y="0px"
	 width="100%" viewBox="0 0 1080 1080" enable-background="new 0 0 1080 1080" xml:space="preserve">
<path fill="#BDA00A" opacity="1.000000" stroke="none" 
	d="
M885.000000,889.162781 
	C801.668762,889.162903 718.837585,889.143250 636.006348,889.176025 
	C612.759521,889.185181 594.352783,901.801880 587.531799,922.258240 
	C585.945801,927.014771 585.075562,931.895020 584.986267,936.947144 
	C584.868469,943.615784 581.316162,947.129333 574.721558,947.143433 
	C551.888916,947.192200 529.056091,947.190552 506.223419,947.143738 
	C499.890137,947.130737 496.466858,943.741882 495.998230,937.346191 
	C493.805359,907.420166 474.272247,889.174500 444.324310,889.168701 
	C355.659912,889.151489 266.995483,889.208496 178.331116,889.134949 
	C148.850098,889.110474 127.474388,875.575928 114.312912,849.330811 
	C109.784935,840.301697 107.996193,830.442993 107.996498,820.305054 
	C108.000504,686.641785 107.947830,552.978455 108.038521,419.315308 
	C108.060463,386.967682 130.701431,359.526215 162.399521,353.007477 
	C166.020584,352.262817 167.235657,350.820984 167.016235,347.133545 
	C166.680267,341.487091 166.997620,335.804779 166.911057,330.139587 
	C166.842911,325.680267 168.734802,322.401276 172.606964,320.363708 
	C214.398651,298.372559 258.035004,281.882324 305.033356,274.899445 
	C337.728851,270.041626 370.386566,269.477386 403.131378,273.726929 
	C448.805542,279.654449 491.931885,293.797333 532.798096,314.818359 
	C538.506775,317.754822 542.744446,317.681763 548.257080,314.579926 
	C560.729492,307.561951 574.090515,302.336609 587.366333,297.010071 
	C589.706543,296.071136 591.086670,295.264526 590.809265,292.097687 
	C587.357666,252.690903 598.419495,217.547897 623.508179,187.195618 
	C654.048462,150.248077 693.961182,133.047577 741.666260,134.147644 
	C809.729980,135.717178 870.213074,189.547806 880.072266,256.763611 
	C882.289673,271.881165 882.695862,286.950745 880.132324,302.030670 
	C879.600342,305.160126 880.463318,306.777924 883.434448,308.121857 
	C890.856201,311.479034 897.966797,315.537323 905.439819,318.763885 
	C912.052795,321.619110 914.783569,326.133331 914.202332,333.244415 
	C913.809937,338.045563 914.342651,342.917603 914.053955,347.733521 
	C913.853638,351.075714 915.091431,352.240906 918.287598,352.948944 
	C944.826965,358.828003 962.030945,375.007050 970.234497,400.811920 
	C972.366028,407.516754 973.074463,414.470001 973.073853,421.507416 
	C973.061707,554.170715 973.117981,686.834045 973.030334,819.497253 
	C973.006531,855.566650 947.962036,884.275818 912.472107,888.724365 
	C903.602417,889.836182 894.497070,889.067261 885.000000,889.162781 
z"/>
<path fill="#ffffff" opacity="1.000000" stroke="none" 
	d="
M243.678253,783.760864 
	C223.762039,789.932495 205.195831,798.401367 186.058914,807.462219 
	C186.058914,804.908264 186.058914,803.143860 186.058914,801.379517 
	C186.058838,647.726440 186.075531,494.073334 185.966553,340.420288 
	C185.963699,336.384491 187.147415,334.301239 190.788895,332.453979 
	C234.412582,310.324036 280.250275,295.526062 329.115051,291.278351 
	C388.566895,286.110291 445.488434,296.651855 500.064270,320.413086 
	C509.208221,324.394226 518.106140,328.937347 527.194336,333.051697 
	C529.959229,334.303375 531.034119,335.884308 531.032349,339.060608 
	C530.944702,493.713593 530.939636,648.366577 531.036743,803.019531 
	C531.039490,807.417175 529.723022,807.070129 526.640137,805.563110 
	C493.902557,789.559265 459.774353,777.616577 423.900757,770.939453 
	C362.864288,759.578857 302.927460,764.148987 243.678253,783.760864 
z"/>
<path fill="#ffffff" opacity="1.000000" stroke="none" 
	d="
M577.848633,321.829742 
	C582.337402,319.943573 586.542542,318.342499 590.581116,316.395905 
	C593.541626,314.968964 594.472839,315.845093 595.262512,318.844788 
	C597.935852,328.999695 601.483887,338.870239 606.741333,348.003052 
	C608.210144,350.554565 607.673462,352.671997 606.820312,355.065308 
	C599.396118,375.893005 592.059998,396.752350 584.559387,417.552368 
	C582.915405,422.111115 582.321106,426.336517 586.138550,430.008820 
	C589.909485,433.636322 594.075500,432.993286 598.644958,431.334839 
	C619.273865,423.847778 639.994690,416.614319 660.650391,409.200348 
	C663.456604,408.193146 665.756653,408.099335 668.623840,409.547272 
	C748.703064,449.987640 842.047119,413.447571 873.343262,329.419098 
	C874.593445,326.062439 875.840149,325.358368 878.971008,327.083771 
	C884.057800,329.887054 890.819458,331.214874 894.057190,335.363800 
	C897.207581,339.400787 894.957031,346.264160 894.958740,351.876099 
	C895.004761,501.516418 894.990295,651.156738 894.986084,800.797058 
	C894.986084,802.782349 894.986084,804.767700 894.986084,806.660522 
	C893.044800,807.432312 891.840027,806.237000 890.570129,805.606506 
	C850.739441,785.829407 808.846863,772.770142 764.682983,767.344055 
	C731.753845,763.298340 698.850830,763.994324 666.104614,769.359863 
	C627.261841,775.724243 590.234131,787.796265 554.988525,805.327332 
	C550.119568,807.749207 550.091492,807.726624 550.091309,802.311646 
	C550.087524,697.330139 550.087830,592.348572 550.087585,487.367065 
	C550.087463,438.209045 550.132812,389.050903 549.998230,339.893250 
	C549.988098,336.190857 551.086304,334.220490 554.452698,332.745789 
	C562.217041,329.344574 569.823242,325.582428 577.848633,321.829742 
z"/>
<path fill="#FFFFFE" opacity="1.000000" stroke="none" 
	d="
M953.940430,575.000000 
	C953.940369,656.495178 953.961609,737.490356 953.928223,818.485535 
	C953.917114,845.408142 937.093384,865.262695 910.699463,869.522888 
	C907.437012,870.049438 904.058838,869.981262 900.734192,869.982117 
	C812.239441,870.004639 723.744690,869.983032 635.249939,870.008545 
	C600.858276,870.018433 574.647949,891.546082 566.733276,924.975525 
	C565.101379,931.868225 557.619080,926.635376 552.987793,927.892334 
	C549.469055,928.847351 550.099487,925.769348 550.098389,923.736816 
	C550.081421,893.571960 550.117798,863.406921 550.028442,833.242371 
	C550.020569,830.579590 550.757202,829.139648 553.223511,827.854370 
	C591.151367,808.088745 631.047302,794.279724 673.427185,788.016724 
	C749.738831,776.739136 821.358093,791.902954 889.479431,826.586121 
	C893.036865,828.397278 896.518066,830.390930 900.183228,831.950867 
	C907.428772,835.034668 913.808533,830.910522 914.129700,823.102966 
	C914.198181,821.439087 914.148438,819.770203 914.148438,818.103638 
	C914.148621,671.279053 914.148071,524.454407 914.148804,377.629822 
	C914.148804,371.126862 914.308105,371.016541 920.377441,373.177673 
	C941.367615,380.651672 953.899231,398.769867 953.923340,422.009949 
	C953.976013,472.839905 953.940125,523.669983 953.940430,575.000000 
z"/>
<path fill="#FFFFFE" opacity="1.000000" stroke="none" 
	d="
M319.684906,786.675049 
	C350.419342,783.005676 380.603607,783.693970 410.736053,788.464600 
	C451.712250,794.952026 490.198822,808.765991 527.139771,827.326172 
	C530.125732,828.826355 531.058228,830.474792 531.043030,833.750732 
	C530.904358,863.578064 530.873230,893.406799 531.062866,923.233521 
	C531.088745,927.299377 529.853516,928.157898 526.057800,928.088257 
	C515.140747,927.887817 515.137756,928.049988 512.113281,917.823608 
	C503.699005,889.373413 477.417999,870.038696 446.761749,870.019714 
	C357.944489,869.964722 269.127167,870.003662 180.309891,869.987305 
	C176.487900,869.986572 172.681931,870.012512 168.861542,869.339294 
	C144.565033,865.057922 127.793396,845.700073 127.155647,821.029724 
	C127.129822,820.030457 127.134972,819.030273 127.134972,818.030518 
	C127.134506,685.721069 127.125015,553.411621 127.144737,421.102203 
	C127.148140,398.269714 140.137207,380.133606 161.463715,372.958038 
	C166.911057,371.125214 166.926849,371.125214 166.926956,376.862976 
	C166.929764,524.169678 166.928650,671.476440 166.932877,818.783142 
	C166.932938,820.781982 166.808502,822.804199 167.059464,824.775208 
	C167.795502,830.555115 173.124634,834.112854 178.681885,832.451965 
	C181.049576,831.744385 183.331406,830.645508 185.529999,829.491516 
	C220.050690,811.372253 256.210754,797.840088 294.579742,790.506897 
	C302.747925,788.945801 310.931366,787.422058 319.684906,786.675049 
z"/>
<path fill="#FFFFFE" opacity="1.000000" stroke="none" 
	d="
M612.956299,394.980164 
	C617.501282,382.072693 621.743591,369.466278 626.478577,357.047699 
	C628.566223,351.572540 628.076721,347.050873 625.170044,341.961792 
	C595.909729,290.733551 607.680237,222.836884 652.263794,184.592773 
	C727.257690,120.262497 842.522583,160.276459 860.436279,257.433624 
	C873.828491,330.068207 823.988159,394.877319 755.636963,405.161774 
	C726.419800,409.557922 699.008301,404.779938 673.329102,390.286469 
	C668.705627,387.676910 664.398987,387.501160 659.534729,389.278595 
	C644.393005,394.811401 629.185913,400.165771 613.981262,405.524353 
	C612.502930,406.045319 611.087524,407.113434 608.850525,406.579224 
	C610.217957,402.746338 611.535950,399.051971 612.956299,394.980164 
z"/>
<path fill="#BFA212" opacity="1.000000" stroke="none" 
	d="
M395.000061,478.390076 
	C408.322540,478.390289 421.145020,478.373932 433.967407,478.408936 
	C435.788116,478.413910 437.646637,478.480591 439.421051,478.843994 
	C444.247833,479.832550 447.137634,483.593903 447.059509,488.510193 
	C446.985626,493.159698 443.583069,497.073761 438.880493,497.797791 
	C437.739899,497.973419 436.553741,497.867554 435.388550,497.867615 
	C384.098663,497.869904 332.808807,497.858185 281.518951,497.899200 
	C278.607605,497.901520 275.876923,497.615936 273.520325,495.768372 
	C270.459900,493.369019 269.463623,490.109802 270.067657,486.425507 
	C270.685730,482.655579 272.988831,480.029938 276.671326,479.067108 
	C278.886444,478.487915 281.280273,478.418427 283.594086,478.416107 
	C320.562714,478.379089 357.531403,478.389923 395.000061,478.390076 
z"/>
<path fill="#BFA212" opacity="1.000000" stroke="none" 
	d="
M366.000000,429.130707 
	C388.983643,429.130829 411.467285,429.128845 433.950928,429.134308 
	C436.109619,429.134827 438.262695,429.035461 440.373413,429.771210 
	C444.652435,431.262665 446.852844,434.300934 447.031677,438.732483 
	C447.207367,443.086395 444.878906,445.933380 441.047882,447.644562 
	C438.706512,448.690369 436.186066,448.616547 433.680664,448.616089 
	C383.550476,448.607147 333.420258,448.615021 283.290070,448.588409 
	C281.306488,448.587341 279.262146,448.528961 277.351562,448.064026 
	C272.644684,446.918640 269.905396,443.291779 269.954071,438.693848 
	C270.002686,434.101776 272.831146,430.596375 277.608215,429.543030 
	C279.370117,429.154541 281.239532,429.148468 283.060059,429.146942 
	C310.540039,429.123993 338.020020,429.130829 366.000000,429.130707 
z"/>
<path fill="#BD9F09" opacity="1.000000" stroke="none" 
	d="
M392.000000,399.159729 
	C355.547272,399.159668 319.594543,399.160187 283.641815,399.157440 
	C282.144135,399.157318 280.637970,399.223206 279.150269,399.092804 
	C273.758209,398.620422 270.066101,394.826141 269.972229,389.751862 
	C269.874298,384.457397 273.648224,380.514313 279.298431,380.037170 
	C280.125458,379.967346 280.961884,380.001190 281.793976,380.001160 
	C332.893463,379.999847 383.992950,379.999969 435.092438,380.000244 
	C435.758209,380.000244 436.425476,379.975891 437.089569,380.010315 
	C443.083618,380.320740 447.023163,384.146790 447.045105,389.666107 
	C447.066315,395.002563 442.962860,399.037781 436.941101,399.111389 
	C425.624329,399.249847 414.304718,399.156769 402.986267,399.159515 
	C399.490845,399.160339 395.995422,399.159637 392.000000,399.159729 
z"/>
<path fill="#BD9F0A" opacity="1.000000" stroke="none" 
	d="
M419.999542,528.000000 
	C425.832336,528.000671 431.166626,527.924927 436.497833,528.021606 
	C442.931427,528.138367 447.005249,531.901550 447.047272,537.580078 
	C447.088257,543.116394 442.861084,547.120728 436.477875,547.126770 
	C384.481781,547.175781 332.485596,547.176208 280.489502,547.125854 
	C274.110992,547.119690 269.989471,543.176880 269.963867,537.541992 
	C269.937592,531.767883 274.147522,528.022827 281.009888,528.017822 
	C327.173157,527.984070 373.336426,528.000122 419.999542,528.000000 
z"/>
<path fill="#BEA00C" opacity="1.000000" stroke="none" 
	d="
M863.098389,533.054565 
	C871.246887,532.079590 875.774597,535.658203 875.795898,543.400940 
	C875.900391,581.360840 875.879456,619.321289 875.815552,657.281372 
	C875.804260,663.984985 871.813660,668.092468 865.929993,668.003784 
	C860.315430,667.919189 856.509216,663.946777 856.494263,657.391174 
	C856.407532,619.431213 856.450317,581.470886 856.455322,543.510681 
	C856.455933,538.794250 858.141663,535.077332 863.098389,533.054565 
z"/>
<path fill="#BEA00D" opacity="1.000000" stroke="none" 
	d="
M875.848877,478.000000 
	C875.848877,487.161255 875.891113,495.822723 875.837524,504.483643 
	C875.794006,511.514709 871.983337,516.044373 866.203796,516.107300 
	C860.403564,516.170410 856.503418,511.739380 856.468811,504.644470 
	C856.388428,488.155212 856.382324,471.664948 856.469604,455.175751 
	C856.508301,447.862732 860.183411,443.801086 866.273987,443.891113 
	C872.177612,443.978394 875.763977,448.262726 875.834290,455.513916 
	C875.905396,462.841949 875.849854,470.171265 875.848877,478.000000 
z"/>
<path fill="#BFA212" opacity="1.000000" stroke="none" 
	d="
M675.012024,242.868774 
	C671.183899,242.868515 667.851318,242.937546 664.522583,242.852783 
	C658.631836,242.702774 654.472107,238.801346 654.322815,233.400299 
	C654.178955,228.198044 657.856262,224.263412 663.606018,223.534775 
	C664.756592,223.388977 665.931396,223.396362 667.095032,223.396179 
	C710.729187,223.389771 754.363403,223.404068 797.997559,223.372437 
	C802.918945,223.368881 807.434570,224.132278 809.760742,229.118820 
	C812.792908,235.618652 808.326477,242.565857 800.914551,242.830444 
	C795.591980,243.020432 790.257141,242.868729 784.927795,242.868744 
	C748.454956,242.868866 711.982117,242.868820 675.012024,242.868774 
z"/>
<path fill="#BFA212" opacity="1.000000" stroke="none" 
	d="
M727.000122,270.391113 
	C750.482056,270.391144 773.463989,270.388428 796.445923,270.396240 
	C798.109253,270.396820 799.788330,270.342896 801.432983,270.540314 
	C806.941223,271.201447 810.535706,274.897644 810.711365,279.940704 
	C810.871094,284.524597 806.865662,288.954407 801.713562,289.738220 
	C800.244812,289.961639 798.722778,289.864227 797.225220,289.864410 
	C754.092468,289.869720 710.959656,289.868774 667.826904,289.868408 
	C666.827698,289.868378 665.825989,289.909119 664.829773,289.853363 
	C658.732056,289.512268 654.297241,285.319824 654.339844,279.963104 
	C654.382080,274.650146 658.360413,270.640106 664.550964,270.487701 
	C674.703552,270.237823 684.866333,270.397156 695.024780,270.391998 
	C705.516541,270.386658 716.008301,270.390900 727.000122,270.391113 
z"/>
<path fill="#BFA212" opacity="1.000000" stroke="none" 
	d="
M803.645874,335.981873 
	C801.109375,336.264404 798.959534,336.586243 796.809387,336.587708 
	C753.982849,336.617249 711.156372,336.611511 668.329834,336.608337 
	C659.217529,336.607666 654.308228,333.126892 654.321838,326.701660 
	C654.335022,320.521301 659.185852,317.132690 668.052063,317.132141 
	C711.045227,317.129395 754.038391,317.130859 797.031555,317.130951 
	C797.864746,317.130951 798.698608,317.111816 799.531067,317.136108 
	C805.553528,317.311829 809.171997,319.885620 810.355286,324.823273 
	C811.465820,329.457703 809.492188,332.906464 803.645874,335.981873 
z"/>
</svg>
