<svg version="1.1" id="Layer_1" xmlns="http://www.w3.org/2000/svg" xmlns:xlink="http://www.w3.org/1999/xlink" x="0px" y="0px"
	 width="100%" viewBox="0 0 1024 1024" enable-background="new 0 0 1024 1024" xml:space="preserve">
<path fill="#bd9f09" opacity="1.000000" stroke="none" 
	d="
M194.779449,598.892761 
	C201.303711,585.906494 208.166962,573.477722 213.899200,560.547607 
	C219.353378,548.244629 228.797577,543.828491 241.335815,543.822388 
	C281.165955,543.802856 320.996124,543.784729 360.826263,543.751404 
	C363.278534,543.749329 365.775299,543.972717 368.415558,543.016541 
	C367.371979,539.350708 365.163574,536.593445 363.383087,533.668091 
	C349.094177,510.190948 334.266907,487.028687 320.482605,463.260773 
	C306.398590,438.975983 291.857880,414.823151 284.974976,387.088379 
	C279.852936,366.448822 277.233124,345.634552 277.511078,324.325562 
	C278.548309,244.817047 312.632141,182.445099 375.661133,135.374908 
	C405.824493,112.848846 440.065216,98.905312 477.354248,94.002266 
	C554.109253,83.909927 621.357300,105.184181 676.702148,159.536209 
	C720.565918,202.613174 743.694214,255.700226 746.435791,317.432648 
	C748.314026,359.723633 738.484924,399.186432 719.513916,436.833435 
	C702.307251,470.979218 680.519287,502.357361 661.390442,535.332153 
	C660.889038,536.196472 660.314575,537.019531 659.833557,537.894470 
	C656.799988,543.411987 657.680237,544.980286 664.022217,544.988770 
	C703.185669,545.041077 742.349182,545.049622 781.512634,545.087830 
	C784.009705,545.090210 786.507141,545.203857 789.003479,545.292786 
	C798.973633,545.647827 805.552612,550.502747 810.061279,559.490967 
	C827.688660,594.631958 845.637268,629.612183 863.529053,664.620117 
	C902.799255,741.458069 942.153442,818.253052 981.308105,895.149780 
	C984.265808,900.958435 988.591675,906.279236 988.432190,913.534912 
	C988.191101,924.499634 982.073669,932.326050 971.303162,934.241638 
	C968.369751,934.763367 965.346924,935.000305 962.365051,935.000854 
	C661.722229,935.056763 361.079407,935.079468 60.436569,935.093079 
	C47.779800,935.093689 41.776932,931.439880 38.531994,921.709045 
	C36.639404,916.033691 37.575371,910.567383 40.222607,905.292419 
	C49.188812,887.426208 58.088253,869.526306 67.078903,851.672363 
	C86.259308,813.583252 105.457253,775.502869 124.691681,737.440979 
	C147.978958,691.359131 171.311340,645.300110 194.779449,598.892761 
M828.500000,889.057373 
	C861.563843,889.057373 894.627625,889.057373 927.674438,889.057373 
	C927.975281,886.369202 927.031738,885.123474 926.365173,883.830627 
	C917.282410,866.214600 908.237427,848.578613 899.057129,831.013428 
	C875.757507,786.433411 852.394775,741.886414 829.056274,697.326660 
	C811.361450,663.541992 793.640503,629.771057 776.010620,595.952515 
	C774.411194,592.884460 772.682556,591.101807 768.820679,591.112732 
	C722.993652,591.242126 677.166138,591.230225 631.338867,591.154236 
	C627.913452,591.148560 625.806274,592.427002 624.047546,595.278076 
	C617.138550,606.478333 610.053284,617.569763 603.058289,628.717224 
	C580.480103,664.698242 558.207153,700.875977 535.182373,736.568787 
	C527.085999,749.119751 512.391296,752.249207 499.785889,743.882446 
	C494.801208,740.573975 492.292633,735.460571 489.289246,730.735901 
	C460.873352,686.034668 432.504364,641.303284 404.295227,596.471558 
	C401.737030,592.405884 398.866302,591.096008 394.181854,591.113586 
	C350.021545,591.278503 305.859680,591.323059 261.700226,591.066711 
	C255.895309,591.033081 252.845398,592.829590 250.168411,597.987671 
	C220.092117,655.940491 189.743881,713.752136 159.517899,771.627380 
	C140.394836,808.243347 121.345314,844.897705 102.302002,881.555237 
	C101.269318,883.543213 99.613953,885.420288 100.478615,889.058533 
	C342.714050,889.058533 585.106995,889.058533 828.500000,889.057373 
M403.888885,508.645691 
	C440.120911,566.000488 476.352966,623.355225 512.593933,680.724121 
	C515.323242,679.235107 516.157715,677.155579 517.278564,675.363220 
	C564.251526,600.246765 611.298218,525.176270 658.067932,449.933411 
	C666.924927,435.684418 677.200928,422.368042 684.304749,406.935150 
	C702.534790,367.330902 706.884705,326.289093 696.870056,284.138550 
	C685.987427,238.335007 661.135742,201.240219 622.689514,173.824036 
	C574.922791,139.761337 522.004028,130.356445 465.481140,144.527283 
	C421.420807,155.573624 386.055634,180.638672 359.444824,217.518768 
	C328.523529,260.372742 318.301819,308.212280 326.843445,360.089600 
	C331.262115,386.926117 342.384094,411.167236 356.997864,433.989319 
	C372.714142,458.533112 388.011993,483.344757 403.888885,508.645691 
z"/>
<path fill="#bd9f09" opacity="1.000000" stroke="none" 
	d="
M475.019867,442.000000 
	C474.776154,452.822662 475.597961,463.168793 474.497192,473.469421 
	C473.580139,482.050934 465.366425,488.656311 456.598450,488.048828 
	C446.961517,487.381073 440.602600,480.799988 440.617004,471.652802 
	C440.655609,447.155334 440.697662,422.657623 440.604858,398.160461 
	C440.588806,393.923828 441.373810,390.197998 444.690887,387.380859 
	C446.413055,385.918213 446.717987,384.096893 446.716187,382.013184 
	C446.697723,360.848724 446.655823,339.683960 446.780243,318.520172 
	C446.800995,314.989349 445.423309,313.169891 442.264130,311.731232 
	C423.700836,303.277618 415.386658,287.947784 414.830231,268.322815 
	C414.491669,256.381226 413.190582,244.247314 415.786774,232.444702 
	C419.449646,215.792435 428.552155,203.290283 445.363159,197.638763 
	C468.790039,189.763123 494.770874,204.987015 499.038025,229.965973 
	C501.814789,246.220779 501.825500,262.908081 498.965546,279.148682 
	C496.375732,293.854919 487.615356,304.975433 473.718781,311.233246 
	C469.558472,313.106720 468.179321,315.533630 468.223602,319.993774 
	C468.423798,340.156311 468.340332,360.322418 468.233032,380.486572 
	C468.216034,383.683502 468.893219,386.161072 471.403381,388.408661 
	C475.116302,391.733154 474.917206,396.546326 474.961243,401.005066 
	C475.094513,414.502258 475.015656,428.001526 475.019867,442.000000 
z"/>
<path fill="#bd9f09" opacity="1.000000" stroke="none" 
	d="
M592.428894,404.962708 
	C593.038940,426.935394 592.843018,448.413422 592.585327,469.903259 
	C592.455688,480.718689 583.563354,486.766449 574.857483,486.936523 
	C565.501038,487.119354 557.800842,479.244415 557.778564,469.759460 
	C557.721680,445.599152 557.789795,421.438599 557.731323,397.278290 
	C557.721130,393.058502 558.678894,389.313446 561.972107,386.520538 
	C564.077393,384.735168 564.714417,382.604431 564.705200,379.917511 
	C564.634827,359.256439 564.607666,338.594666 564.719360,317.933960 
	C564.739197,314.266541 563.411133,312.251770 560.028748,310.690002 
	C541.819763,302.282288 533.075256,287.509247 532.739136,267.831543 
	C532.389160,247.342758 532.622620,226.843506 532.655762,206.348938 
	C532.665161,200.509659 536.113647,196.305466 541.108704,195.755325 
	C546.911987,195.116180 551.227173,199.277771 551.279419,205.980865 
	C551.393494,220.642899 551.332581,235.306351 551.328796,249.969223 
	C551.328247,252.145569 551.344910,254.264969 552.602295,256.219177 
	C554.216675,258.728271 556.549438,259.831970 559.372925,259.633942 
	C562.333008,259.426208 564.341309,257.613434 565.061707,254.783295 
	C565.545532,252.882187 565.646729,250.844620 565.653259,248.867249 
	C565.703979,233.371399 565.607117,217.874680 565.732483,202.379654 
	C565.794128,194.759232 572.553589,190.097366 578.979797,193.083893 
	C583.101501,194.999420 584.455383,198.517426 584.433777,202.907364 
	C584.358154,218.236328 584.384888,233.565948 584.421692,248.895187 
	C584.426025,250.708984 584.473572,252.594696 584.956604,254.319565 
	C585.823914,257.417358 587.654724,260.014465 591.281372,259.458038 
	C594.628479,258.944489 596.326904,256.356293 596.589844,253.055237 
	C596.787842,250.570328 596.683472,248.060043 596.685791,245.561035 
	C596.697449,232.897629 596.678528,220.234177 596.714233,207.570862 
	C596.734375,200.405930 599.913025,196.135513 605.437073,195.698029 
	C610.837891,195.270294 617.938843,200.684952 617.942993,206.428177 
	C617.959656,229.735657 619.758850,253.130112 617.141418,276.329132 
	C615.278809,292.837677 605.780396,304.872589 590.414612,311.704590 
	C587.163696,313.150055 585.976807,314.947235 585.976135,318.463684 
	C585.972412,338.287903 585.736816,358.112061 585.615723,377.936462 
	C585.593994,381.489929 586.258362,384.619232 589.126770,387.370544 
	C594.092712,392.133575 592.006409,398.623291 592.428894,404.962708 
z"/>
</svg>
