<svg version="1.1" id="Layer_1" xmlns="http://www.w3.org/2000/svg" xmlns:xlink="http://www.w3.org/1999/xlink" x="0px" y="0px"
	 width="100%" viewBox="0 0 636.1 636.1" enable-background="new 0 0 636.1 636.1" xml:space="preserve">
<style type="text/css">
	.st0{fill:url(#SVGID_1_);}
	.st1{fill:url(#SVGID_2_);}
</style>
<linearGradient id="SVGID_1_" gradientUnits="userSpaceOnUse" x1="-14.647" y1="54.2922" x2="656.5567" y2="54.2922" >
	<stop offset="1.502404e-03" style="stop-color:#7e3b01" />
	<stop offset="1" style="stop-color:#bd9f09" />
</linearGradient>
<path class="st0" opacity="1.000000" stroke="none" 
	d="
M462.000000,28.943035 
	C491.496307,28.960098 520.496521,28.684465 549.487915,29.072157 
	C582.060913,29.507742 615.796326,52.314835 624.532410,88.447441 
	C625.498352,92.442635 626.009521,96.651123 626.011597,100.761063 
	C626.084534,245.909683 626.330017,391.059204 625.834106,536.206177 
	C625.743713,562.670776 611.173706,582.199707 589.298706,596.283997 
	C575.188782,605.368774 559.490417,609.002014 542.840271,609.001709 
	C392.358887,608.998901 241.877533,609.001953 91.396164,608.997803 
	C68.928642,608.997131 49.199013,601.393799 32.937576,586.112183 
	C17.382723,571.494690 9.005828,553.206848 9.004508,531.526917 
	C8.995946,390.877655 9.321795,250.227142 8.771858,109.580040 
	C8.635073,74.596863 31.179497,42.969616 64.642967,33.164566 
	C73.895485,30.453505 83.889366,29.137886 93.547256,29.117128 
	C216.197723,28.853502 338.848969,28.943306 462.000000,28.943035 
M460.565369,126.948334 
	C459.599426,126.300980 458.569641,125.731010 457.677032,124.994766 
	C441.905762,111.986298 423.328735,103.928619 404.572449,96.862053 
	C390.905334,91.712852 376.559174,87.779205 361.683777,86.685684 
	C352.750122,86.028954 343.889160,83.864105 334.968445,83.678635 
	C323.357300,83.437225 311.720520,84.520424 300.092468,84.973717 
	C283.036652,85.638603 266.356232,88.741631 250.420486,94.608391 
	C236.506058,99.730995 222.556671,105.265381 209.636902,112.443291 
	C196.202377,119.907188 183.238449,128.658325 171.394775,138.450424 
	C149.296921,156.720505 131.253784,178.846161 117.574974,204.028336 
	C108.910721,219.978897 101.099258,236.566956 96.982155,254.482651 
	C94.312126,266.101379 90.356392,277.730835 89.860336,289.477264 
	C88.916275,311.832214 87.202057,334.183258 91.042313,356.711578 
	C94.339531,376.054230 99.868958,394.515747 106.667068,412.690918 
	C109.713684,420.836243 114.188477,428.474182 118.307175,436.186432 
	C128.977280,456.166077 142.732269,473.943787 159.123047,489.427216 
	C174.770676,504.208649 191.755920,517.161072 210.889923,527.674988 
	C231.344788,538.914673 253.066406,545.857788 275.217682,552.040405 
	C279.952698,553.362000 285.089294,553.392456 290.060516,553.692383 
	C305.131927,554.601440 320.234161,556.242737 335.283691,555.885132 
	C347.667450,555.590881 360.101471,553.408691 372.312622,551.032288 
	C383.515503,548.852112 394.618103,545.796265 405.447418,542.176331 
	C413.430420,539.507935 421.259827,535.920471 428.525604,531.663635 
	C442.682312,523.369629 457.183350,515.333557 470.087189,505.316895 
	C485.135864,493.635254 499.462585,480.714478 510.058624,464.491974 
	C518.673218,451.303009 527.820862,438.341492 535.072266,424.414795 
	C543.279663,408.651947 548.066223,391.515167 552.283997,374.101593 
	C558.045776,350.313507 560.070496,326.477661 558.151733,302.268219 
	C557.155640,289.700287 555.599426,277.102295 553.131042,264.750732 
	C551.385742,256.017395 547.434509,247.748474 544.905396,239.143661 
	C538.101624,215.995590 526.188477,195.382065 511.799225,176.469879 
	C497.499573,157.675415 480.881378,140.785873 460.565369,126.948334 
z"/>
<path fill="#FDFDFD" opacity="1.000000" stroke="none" 
	d="
M460.877441,127.126495 
	C480.881378,140.785873 497.499573,157.675415 511.799225,176.469879 
	C526.188477,195.382065 538.101624,215.995590 544.905396,239.143661 
	C547.434509,247.748474 551.385742,256.017395 553.131042,264.750732 
	C555.599426,277.102295 557.155640,289.700287 558.151733,302.268219 
	C560.070496,326.477661 558.045776,350.313507 552.283997,374.101593 
	C548.066223,391.515167 543.279663,408.651947 535.072266,424.414795 
	C527.820862,438.341492 518.673218,451.303009 510.058624,464.491974 
	C499.462585,480.714478 485.135864,493.635254 470.087189,505.316895 
	C457.183350,515.333557 442.682312,523.369629 428.525604,531.663635 
	C421.259827,535.920471 413.430420,539.507935 405.447418,542.176331 
	C394.618103,545.796265 383.515503,548.852112 372.312622,551.032288 
	C360.101471,553.408691 347.667450,555.590881 335.283691,555.885132 
	C320.234161,556.242737 305.131927,554.601440 290.060516,553.692383 
	C285.089294,553.392456 279.952698,553.362000 275.217682,552.040405 
	C253.066406,545.857788 231.344788,538.914673 210.889923,527.674988 
	C191.755920,517.161072 174.770676,504.208649 159.123047,489.427216 
	C142.732269,473.943787 128.977280,456.166077 118.307175,436.186432 
	C114.188477,428.474182 109.713684,420.836243 106.667068,412.690918 
	C99.868958,394.515747 94.339531,376.054230 91.042313,356.711578 
	C87.202057,334.183258 88.916275,311.832214 89.860336,289.477264 
	C90.356392,277.730835 94.312126,266.101379 96.982155,254.482651 
	C101.099258,236.566956 108.910721,219.978897 117.574974,204.028336 
	C131.253784,178.846161 149.296921,156.720505 171.394775,138.450424 
	C183.238449,128.658325 196.202377,119.907188 209.636902,112.443291 
	C222.556671,105.265381 236.506058,99.730995 250.420486,94.608391 
	C266.356232,88.741631 283.036652,85.638603 300.092468,84.973717 
	C311.720520,84.520424 323.357300,83.437225 334.968445,83.678635 
	C343.889160,83.864105 352.750122,86.028954 361.683777,86.685684 
	C376.559174,87.779205 390.905334,91.712852 404.572449,96.862053 
	C423.328735,103.928619 441.905762,111.986298 457.677032,124.994766 
	C458.569641,125.731010 459.599426,126.300980 460.877441,127.126495 
M294.253693,301.814117 
	C302.729889,297.269287 311.232178,292.772308 319.675781,288.167725 
	C330.621063,282.198853 341.513519,276.133240 352.441254,270.132111 
	C356.771912,267.753876 361.173309,266.934052 365.685150,269.728119 
	C379.380432,278.209259 393.138855,286.590118 406.761841,295.185791 
	C416.584656,301.383698 426.081787,308.107300 436.009155,314.126404 
	C442.224854,317.895081 445.963074,315.658386 446.229248,308.396912 
	C447.235352,280.946686 448.096741,253.491104 448.993378,226.036926 
	C449.172028,220.566925 446.877350,216.662430 442.094971,213.721985 
	C418.616333,199.286118 395.199646,184.747116 371.893127,170.035355 
	C366.512146,166.638718 361.305817,166.291992 355.933258,169.178406 
	C331.859039,182.112274 307.964355,195.386856 283.737732,208.026398 
	C276.926208,211.580093 274.677551,216.377121 274.685486,223.563858 
	C274.705353,241.549911 274.384369,259.537231 274.095428,277.522339 
	C273.964355,285.679260 273.460846,293.830658 273.356812,301.987488 
	C273.271393,308.683044 276.142151,310.531403 281.989288,307.813477 
	C285.891907,305.999390 289.755829,304.101990 294.253693,301.814117 
M443.788361,386.439514 
	C443.940521,380.446991 444.053345,374.453125 444.254028,368.462219 
	C444.560516,359.311676 444.751709,350.152100 445.323639,341.017151 
	C445.798462,333.433197 443.391388,327.863739 436.313232,324.300751 
	C430.686157,321.468201 425.301086,318.119934 419.961548,314.757690 
	C403.398376,304.328094 386.963745,293.692902 370.326172,283.384491 
	C367.990295,281.937195 364.178162,280.576508 362.183563,281.535278 
	C360.278809,282.450867 359.163513,286.382751 358.912872,289.100433 
	C358.241791,296.377075 358.180115,303.712341 357.948517,311.026611 
	C357.337250,330.329407 356.717834,349.632172 356.209778,368.937805 
	C356.088898,373.530731 354.318542,376.964325 350.289917,379.158234 
	C343.600983,382.800934 336.923828,386.467865 330.177612,390.002228 
	C312.583008,399.220093 294.946198,408.357361 277.342194,417.557373 
	C271.006348,420.868530 270.701721,424.782898 276.659149,428.521271 
	C300.142853,443.257568 323.675507,457.915955 347.221710,472.552307 
	C351.331940,475.107300 355.860657,475.463013 360.123596,473.238251 
	C369.524323,468.332092 378.730591,463.055084 388.083740,458.055695 
	C401.967072,450.634796 415.793213,443.091827 429.870239,436.054016 
	C438.028381,431.975342 443.816772,427.371643 443.105133,416.868408 
	C442.443939,407.110443 443.456787,397.239105 443.788361,386.439514 
M175.854721,336.368805 
	C175.514908,340.683502 175.400055,345.030304 174.789719,349.306396 
	C173.404114,359.014191 176.281021,365.952728 185.281052,371.193573 
	C207.518448,384.142822 229.351486,397.790924 251.245529,411.322388 
	C257.181763,414.991241 262.646637,414.742615 268.560333,411.373657 
	C281.831085,403.813568 295.212067,396.445343 308.596283,389.086639 
	C318.632721,383.568481 328.877167,378.414825 338.765076,372.646515 
	C343.570160,369.843323 343.620728,366.703613 339.245789,363.777649 
	C329.868713,357.506195 320.325012,351.476074 310.733002,345.535370 
	C296.612762,336.790192 282.382263,328.223145 268.218597,319.547760 
	C265.147430,317.666656 263.734680,315.028961 263.892365,311.226593 
	C264.485931,296.917419 264.770966,282.595795 265.305359,268.283813 
	C265.808533,254.808365 266.609833,241.343262 267.029999,227.865814 
	C267.287994,219.589676 264.230072,217.809845 257.047394,221.684143 
	C254.860596,222.863724 252.816864,224.311127 250.618484,225.466293 
	C228.887863,236.884872 207.268921,248.528854 185.312912,259.497620 
	C178.936508,262.683167 177.363602,267.203705 177.251144,273.447906 
	C176.879257,294.099396 176.361893,314.748291 175.854721,336.368805 
z"/>
<path fill="#7e3b01" opacity="1.000000" stroke="none" 
	d="
M293.945374,302.027985 
	C289.755829,304.101990 285.891907,305.999390 281.989288,307.813477 
	C276.142151,310.531403 273.271393,308.683044 273.356812,301.987488 
	C273.460846,293.830658 273.964355,285.679260 274.095428,277.522339 
	C274.384369,259.537231 274.705353,241.549911 274.685486,223.563858 
	C274.677551,216.377121 276.926208,211.580093 283.737732,208.026398 
	C307.964355,195.386856 331.859039,182.112274 355.933258,169.178406 
	C361.305817,166.291992 366.512146,166.638718 371.893127,170.035355 
	C395.199646,184.747116 418.616333,199.286118 442.094971,213.721985 
	C446.877350,216.662430 449.172028,220.566925 448.993378,226.036926 
	C448.096741,253.491104 447.235352,280.946686 446.229248,308.396912 
	C445.963074,315.658386 442.224854,317.895081 436.009155,314.126404 
	C426.081787,308.107300 416.584656,301.383698 406.761841,295.185791 
	C393.138855,286.590118 379.380432,278.209259 365.685150,269.728119 
	C361.173309,266.934052 356.771912,267.753876 352.441254,270.132111 
	C341.513519,276.133240 330.621063,282.198853 319.675781,288.167725 
	C311.232178,292.772308 302.729889,297.269287 293.945374,302.027985 
z"/>
<path fill="#7e3b01" opacity="1.000000" stroke="none" 
	d="
M443.760468,386.928589 
	C443.456787,397.239105 442.443939,407.110443 443.105133,416.868408 
	C443.816772,427.371643 438.028381,431.975342 429.870239,436.054016 
	C415.793213,443.091827 401.967072,450.634796 388.083740,458.055695 
	C378.730591,463.055084 369.524323,468.332092 360.123596,473.238251 
	C355.860657,475.463013 351.331940,475.107300 347.221710,472.552307 
	C323.675507,457.915955 300.142853,443.257568 276.659149,428.521271 
	C270.701721,424.782898 271.006348,420.868530 277.342194,417.557373 
	C294.946198,408.357361 312.583008,399.220093 330.177612,390.002228 
	C336.923828,386.467865 343.600983,382.800934 350.289917,379.158234 
	C354.318542,376.964325 356.088898,373.530731 356.209778,368.937805 
	C356.717834,349.632172 357.337250,330.329407 357.948517,311.026611 
	C358.180115,303.712341 358.241791,296.377075 358.912872,289.100433 
	C359.163513,286.382751 360.278809,282.450867 362.183563,281.535278 
	C364.178162,280.576508 367.990295,281.937195 370.326172,283.384491 
	C386.963745,293.692902 403.398376,304.328094 419.961548,314.757690 
	C425.301086,318.119934 430.686157,321.468201 436.313232,324.300751 
	C443.391388,327.863739 445.798462,333.433197 445.323639,341.017151 
	C444.751709,350.152100 444.560516,359.311676 444.254028,368.462219 
	C444.053345,374.453125 443.940521,380.446991 443.760468,386.928589 
z"/>
<path fill="#7e3b01" opacity="1.000000" stroke="none" 
	d="
M175.877548,335.883484 
	C176.361893,314.748291 176.879257,294.099396 177.251144,273.447906 
	C177.363602,267.203705 178.936508,262.683167 185.312912,259.497620 
	C207.268921,248.528854 228.887863,236.884872 250.618484,225.466293 
	C252.816864,224.311127 254.860596,222.863724 257.047394,221.684143 
	C264.230072,217.809845 267.287994,219.589676 267.029999,227.865814 
	C266.609833,241.343262 265.808533,254.808365 265.305359,268.283813 
	C264.770966,282.595795 264.485931,296.917419 263.892365,311.226593 
	C263.734680,315.028961 265.147430,317.666656 268.218597,319.547760 
	C282.382263,328.223145 296.612762,336.790192 310.733002,345.535370 
	C320.325012,351.476074 329.868713,357.506195 339.245789,363.777649 
	C343.620728,366.703613 343.570160,369.843323 338.765076,372.646515 
	C328.877167,378.414825 318.632721,383.568481 308.596283,389.086639 
	C295.212067,396.445343 281.831085,403.813568 268.560333,411.373657 
	C262.646637,414.742615 257.181763,414.991241 251.245529,411.322388 
	C229.351486,397.790924 207.518448,384.142822 185.281052,371.193573 
	C176.281021,365.952728 173.404114,359.014191 174.789719,349.306396 
	C175.400055,345.030304 175.514908,340.683502 175.877548,335.883484 
z"/>
</svg>
