<svg version="1.1" id="Layer_1" xmlns="http://www.w3.org/2000/svg" xmlns:xlink="http://www.w3.org/1999/xlink" x="0px" y="0px"
	 width="100%" viewBox="0 0 636.1 140.4" enable-background="new 0 0 636.1 140.4" xml:space="preserve">
<style type="text/css">
	.st0{fill:url(#SVGID_1_);}
	.st1{fill:url(#SVGID_2_);}
</style>
<linearGradient id="SVGID_1_" gradientUnits="userSpaceOnUse" x1="-14.647" y1="54.2922" x2="656.5567" y2="54.2922" >
	<stop offset="1.502404e-03" style="stop-color:#7e3b01" />
	<stop offset="1" style="stop-color:#bd9f09" />
</linearGradient>
<path class="st0" opacity="1.000000" stroke="none" 
	d="M146.038681,6.498116 
	C155.590576,9.803527 159.007507,14.485313 159.007889,23.913673 
	C159.009216,55.551506 158.661896,87.195435 159.218216,118.823479 
	C159.386459,128.389267 150.836182,136.835892 141.778687,136.871246 
	C106.977600,137.007111 72.175385,137.003311 37.374237,136.875595 
	C28.010004,136.841232 20.040171,128.510117 20.021318,119.085808 
	C19.957369,87.115067 19.957827,55.144051 20.020710,23.173309 
	C20.039629,13.554480 28.023245,6.032216 38.285885,6.003200 
	C66.759697,5.922692 95.233887,5.942698 123.707855,5.980356 
	C131.022339,5.990029 138.336548,6.211713 146.038681,6.498116 
M104.570747,123.035881 
	C124.717178,117.445045 137.313339,104.509300 142.505676,84.251785 
	C150.617706,52.603188 128.249924,20.655745 95.878822,18.193491 
	C58.400669,15.342781 30.448689,48.685413 39.552834,85.062431 
	C46.749222,113.816704 76.386757,130.649933 104.570747,123.035881 
z"/>
<linearGradient id="SVGID_2_" gradientUnits="userSpaceOnUse" x1="-14.647" y1="54.2922" x2="656.5567" y2="54.2922" >
	<stop offset="1.502404e-03" style="stop-color:#7e3b01" />
	<stop offset="1" style="stop-color:#bd9f09" />
</linearGradient>
<path class="st1" opacity="1.000000" stroke="none" 
	d="
M351.006989,81.001167 
	C350.656952,95.014656 343.134094,102.890709 327.436066,104.770439 
	C317.826630,105.921112 305.709869,101.901360 302.432831,87.084312 
	C308.594391,87.504227 314.517609,85.469650 320.405914,89.845474 
	C322.864319,91.672417 327.950775,91.840172 330.970245,90.614357 
	C336.061615,88.547409 337.135498,83.298386 336.940430,77.589867 
	C333.805206,79.138618 331.093689,81.068604 328.082550,81.863342 
	C315.031982,85.307755 305.119415,75.421066 302.008667,65.317886 
	C301.511597,63.703396 300.424286,62.270645 298.937927,60.873039 
	C294.018036,60.614250 292.722107,57.917206 293.047272,54.130840 
	C293.368958,50.384899 296.069702,49.867855 299.112976,49.956802 
	C300.000092,48.738609 301.460815,47.618256 301.687805,46.287464 
	C304.805084,28.012373 322.610260,23.594034 337.769165,29.914122 
	C346.411499,33.517315 350.624268,39.965919 350.963928,50.048813 
	C350.976501,60.956398 350.991760,70.978783 351.006989,81.001167 
M337.046539,55.495689 
	C336.565277,52.412155 336.608673,49.119308 335.481323,46.293530 
	C333.736298,41.919529 330.508789,38.735626 325.248535,39.110554 
	C320.198975,39.470459 316.614197,42.176682 315.928284,47.208046 
	C315.219757,52.405205 314.700714,57.816792 315.377197,62.966640 
	C316.231995,69.473938 323.370361,72.638618 329.603271,70.215286 
	C336.069977,67.701057 336.940399,62.287239 337.046539,55.495689 
z"/>
<path fill="#7e3b01" opacity="1.000000" stroke="none" 
	d="
M240.187500,68.828369 
	C243.182510,73.015701 245.952240,76.925362 249.393997,81.783646 
	C243.398956,81.783646 238.206390,81.888802 233.026810,81.676834 
	C232.194580,81.642769 231.296951,80.283249 230.638657,79.383461 
	C225.247940,72.015160 219.979721,64.556282 214.527039,57.234577 
	C210.326309,51.593952 206.427429,50.888214 203.391983,55.196491 
	C202.442230,56.544510 202.142487,58.574776 202.107956,60.303989 
	C201.969025,67.262558 202.050430,74.225517 202.050430,81.940018 
	C197.969711,81.940018 194.349396,82.170273 190.793411,81.793449 
	C189.785004,81.686577 188.182068,79.815498 188.173431,78.742851 
	C188.016479,59.261715 187.939499,39.777683 188.140671,20.297316 
	C188.198654,14.682950 195.312851,10.812102 200.482880,13.351483 
	C201.386932,13.795532 201.954102,15.753835 201.977661,17.025728 
	C202.115448,24.466476 202.045242,31.911074 202.045242,40.748535 
	C204.180267,38.914371 205.421402,38.011395 206.468384,36.921860 
	C212.689850,30.447584 218.997452,24.048088 225.001556,17.376379 
	C227.909637,14.144933 231.019974,12.527491 235.425903,12.992507 
	C238.675919,13.335526 241.991226,13.059867 246.658936,13.059867 
	C244.876389,15.172249 243.975494,16.402098 242.913467,17.472010 
	C236.109634,24.326429 229.356735,31.235579 222.393250,37.924965 
	C220.137299,40.092129 219.887970,41.782291 221.765854,44.246330 
	C227.900146,52.295315 233.906586,60.441746 240.187500,68.828369 
z"/>
<path fill="#7e3b01" opacity="1.000000" stroke="none" 
	d="
M491.013428,75.989174 
	C481.539581,85.986816 461.413269,84.083130 453.166779,75.238876 
	C450.196442,72.053268 448.372070,66.691948 448.177521,62.229671 
	C447.554657,47.944012 447.869110,33.613747 448.002350,19.302382 
	C448.025848,16.777988 446.232819,12.961469 451.581848,12.931391 
	C457.605865,12.897517 460.603485,14.593972 460.946716,19.388245 
	C461.207581,23.031790 461.009674,26.707245 461.050232,30.368120 
	C461.061005,31.339695 461.198303,32.309868 461.332367,33.954304 
	C464.355438,31.902124 466.759857,29.569298 469.636505,28.447447 
	C478.538574,24.975775 489.089935,28.910997 493.277344,37.868656 
	C499.247284,50.639557 499.555511,63.496460 491.013428,75.989174 
M469.531281,39.795101 
	C465.431305,40.997597 462.742554,44.057560 462.330322,47.908230 
	C461.782745,53.023273 462.089203,58.322128 462.751495,63.448627 
	C463.428833,68.691788 467.376648,70.869377 472.357513,70.959572 
	C477.469116,71.052147 480.778381,68.280800 482.251648,63.529442 
	C483.074829,60.874664 483.593231,58.075207 483.849792,55.303986 
	C484.764557,45.425282 478.779449,38.552204 469.531281,39.795101 
z"/>
<path fill="#7e3b01" opacity="1.000000" stroke="none" 
	d="
M400.997650,62.993000 
	C400.196503,56.360619 407.931702,50.569874 417.249023,49.052338 
	C420.992249,48.442657 424.819336,48.032883 428.398010,46.879681 
	C429.871277,46.404938 431.746979,44.170021 431.688324,42.811359 
	C431.631592,41.498463 429.530518,39.808533 427.960754,39.118095 
	C424.061554,37.403137 420.584503,38.750015 416.669006,40.378143 
	C412.404755,42.151306 407.304230,41.913185 401.961761,42.633701 
	C403.015472,35.874329 406.094971,31.967560 410.749786,29.867769 
	C419.653717,25.851170 428.797821,26.198429 437.780945,29.985828 
	C442.741608,32.077312 445.500122,36.358707 445.672821,41.254852 
	C445.981598,50.007168 445.870483,58.882236 444.727081,67.546600 
	C443.646393,75.735947 435.655090,81.707085 427.334137,81.955505 
	C422.588837,82.097168 417.775055,82.448120 413.100739,81.852356 
	C406.717651,81.038795 401.967224,75.848404 400.998657,68.942993 
	C401.000000,66.415901 400.998840,64.704453 400.997650,62.993000 
M427.194611,56.864201 
	C424.465576,57.535542 421.720856,58.149715 419.011047,58.891262 
	C414.654633,60.083405 413.171722,63.253426 414.108826,67.319778 
	C415.093170,71.591324 418.693054,72.323036 422.364471,71.866951 
	C429.932861,70.926750 434.154053,63.797062 432.170898,55.330536 
	C430.753357,55.750702 429.347290,56.167465 427.194611,56.864201 
z"/>
<path fill="#7e3b01" opacity="1.000000" stroke="none" 
	d="
M503.579620,73.317589 
	C496.467987,61.856419 497.453552,42.213795 505.511566,34.146622 
	C512.828186,26.821682 521.744263,25.587009 531.313965,28.348450 
	C539.753784,30.783852 544.728638,36.953102 546.725952,45.159657 
	C549.431274,56.275414 548.666931,67.138741 540.421570,75.962982 
	C531.151245,85.884216 512.076416,84.462395 503.579620,73.317589 
M512.198608,51.949383 
	C512.561462,55.713020 512.579224,59.550911 513.369141,63.222675 
	C514.518555,68.565598 517.974548,70.985664 523.394287,70.999588 
	C528.160034,71.011833 531.935547,68.281036 532.874390,63.219551 
	C533.680115,58.875877 534.107117,54.337555 533.804993,49.947010 
	C533.488892,45.353905 531.449829,41.142075 526.620789,39.503513 
	C522.947449,38.257095 519.036072,38.663692 516.667725,41.943600 
	C514.731323,44.625313 513.816650,48.044823 512.198608,51.949383 
z"/>
<path fill="#7e3b01" opacity="1.000000" stroke="none" 
	d="
M400.684570,62.715420 
	C400.998840,64.704453 401.000000,66.415901 401.002808,68.553932 
	C400.638489,71.183716 400.203735,73.378220 399.924225,75.592331 
	C399.580536,78.314758 401.072510,81.851677 396.061462,82.008064 
	C389.774231,82.204262 386.473633,80.423897 386.048889,75.679153 
	C385.783264,72.712051 386.022095,69.703270 385.931549,66.716324 
	C385.720947,59.770737 385.833435,52.784527 385.073883,45.896511 
	C384.503448,40.723537 380.517120,38.462322 374.863251,38.983913 
	C370.492767,39.387108 367.937988,42.488831 367.920349,47.573570 
	C367.886353,57.372314 367.805084,67.172874 367.960266,76.969246 
	C368.016296,80.507065 367.003632,82.354736 363.172913,81.974258 
	C360.063538,81.665421 356.935242,81.546936 353.448792,80.687828 
	C353.069672,69.686447 353.057129,59.341274 353.044556,48.996098 
	C353.244720,48.192917 353.615051,47.390598 353.619110,46.586422 
	C353.668945,36.766228 359.460876,31.473284 368.035217,28.622013 
	C377.386108,25.512526 386.351929,27.088703 393.566681,33.511509 
	C396.516937,36.137939 398.019623,41.059452 398.875275,45.206249 
	C400.032440,50.814255 399.932251,56.681705 400.684570,62.715420 
z"/>
<path fill="#7e3b01" opacity="1.000000" stroke="none" 
	d="
M299.095673,49.545952 
	C296.069702,49.867855 293.368958,50.384899 293.047272,54.130840 
	C292.722107,57.917206 294.018036,60.614250 298.652313,61.002983 
	C298.459076,73.457977 287.743103,83.876747 272.948334,82.439423 
	C255.128830,80.708221 249.471970,64.537216 251.554794,49.939636 
	C252.402222,44.000412 253.715515,38.338684 258.444366,33.861668 
	C266.414124,26.316359 275.543518,25.394894 285.165680,29.076403 
	C294.070526,32.483456 298.276001,39.784405 299.095673,49.545952 
M273.867401,70.972847 
	C278.528809,71.520683 282.335022,69.855286 284.090210,65.549812 
	C286.799286,58.904415 287.223083,51.929699 284.476257,45.144100 
	C282.848602,41.123241 279.719513,38.878803 275.113892,39.037819 
	C270.738220,39.188904 267.246124,41.424759 266.539276,45.363640 
	C265.537415,50.946663 265.565674,56.789303 265.798279,62.494724 
	C265.974854,66.826065 268.627502,69.821472 273.867401,70.972847 
z"/>
<path fill="#CB9A0B" opacity="1.000000" stroke="none" 
	d="
M176.068420,124.698433 
	C175.993195,117.417648 175.993195,110.607521 175.993195,103.279434 
	C180.707275,103.279434 185.352249,102.740044 189.813705,103.414536 
	C195.524963,104.277962 196.550415,108.655510 193.740921,112.256851 
	C194.690872,116.113129 196.673721,119.522720 195.715195,121.522423 
	C194.670792,123.701294 191.014221,125.443062 188.287247,125.806686 
	C184.337936,126.333298 180.200714,125.450607 176.068420,124.698433 
M192.105545,122.562798 
	C194.235321,118.137749 193.326981,115.785332 188.866425,115.257050 
	C185.671234,114.878616 182.395142,115.183464 179.027039,115.183464 
	C179.027039,118.279060 179.027039,120.844925 179.027039,124.294891 
	C183.357803,123.842934 187.359680,123.425301 192.105545,122.562798 
M191.976868,110.240517 
	C191.455383,105.100563 187.866058,103.827896 179.045349,105.731339 
	C179.045349,107.951866 179.045349,110.199387 179.045349,113.783195 
	C183.561264,112.777206 187.584122,111.881050 191.976868,110.240517 
z"/>
<path fill="#CC9A0B" opacity="1.000000" stroke="none" 
	d="
M232.003403,114.993683 
	C232.003403,110.868713 232.003403,107.237427 232.003403,103.102043 
	C236.673325,103.102043 240.996277,102.702621 245.189362,103.267426 
	C247.346024,103.557930 250.116364,105.127762 251.052322,106.928703 
	C251.909180,108.577423 250.670990,111.314957 250.418304,113.126076 
	C251.190903,116.119263 253.376022,119.817078 252.322983,121.758537 
	C251.111969,123.991264 247.154419,125.311264 244.174561,125.860931 
	C240.484436,126.541626 236.573257,126.023903 232.003403,126.023903 
	C232.003403,122.332970 232.003403,118.910172 232.003403,114.993683 
M235.816956,123.805679 
	C239.130585,123.811691 242.553574,124.316223 245.713806,123.622978 
	C247.410172,123.250854 249.446854,120.985062 249.805832,119.257156 
	C250.020187,118.225327 247.441925,115.675125 245.842926,115.397499 
	C242.370239,114.794548 238.720444,115.211510 235.122589,115.211510 
	C235.122589,118.243942 235.122589,120.716660 235.816956,123.805679 
M248.901627,108.606857 
	C245.508820,102.406273 239.970474,106.016136 235.289322,104.999924 
	C235.289322,108.000694 235.289322,110.357697 235.289322,112.978554 
	C237.658676,112.978554 239.762085,113.420242 241.565063,112.872719 
	C244.126556,112.094841 246.467056,110.589333 248.901627,108.606857 
z"/>
<path fill="#BE960D" opacity="1.000000" stroke="none" 
	d="
M446.241821,126.820435 
	C446.245117,121.039993 446.196289,115.734314 446.307953,110.431999 
	C446.324493,109.647842 447.099915,108.879654 447.524200,108.104065 
	C448.246307,108.784340 448.968414,109.464615 449.754456,110.205132 
	C455.251465,106.985298 460.064911,107.219765 463.419434,111.041000 
	C466.182495,114.188507 466.335632,119.160225 463.773041,122.521828 
	C460.645569,126.624451 455.853638,127.091438 448.884521,123.605865 
	C448.884521,126.882347 448.884521,129.872177 448.884521,132.862015 
	C448.224579,132.932144 447.564667,133.002274 446.904724,133.072403 
	C446.683685,131.147034 446.462646,129.221664 446.241821,126.820435 
M450.934021,112.481468 
	C450.427277,113.331635 449.728210,114.122993 449.447174,115.042160 
	C448.233276,119.012566 450.647247,122.758804 454.809296,123.531464 
	C458.555908,124.226997 462.275299,121.608505 462.830353,117.884560 
	C463.373779,114.238388 460.432953,110.479111 456.564026,110.419067 
	C454.875366,110.392860 453.170532,111.406860 450.934021,112.481468 
z"/>
<path fill="#C6990C" opacity="1.000000" stroke="none" 
	d="
M360.829865,105.898880 
	C367.852722,100.722511 374.148285,100.556755 379.422058,105.974838 
	C377.887054,105.626152 376.353333,105.271690 374.816833,104.929726 
	C366.745087,103.133278 360.838348,106.912514 360.725769,113.806686 
	C360.608673,120.975342 367.568695,125.392326 375.507874,122.624168 
	C376.432312,122.301849 376.976776,120.321518 377.309631,119.011353 
	C377.747833,117.286484 377.801941,115.464058 378.159180,112.562973 
	C382.433838,120.307945 380.117340,125.243340 373.045837,125.936478 
	C367.557556,126.474442 362.643982,125.179733 359.660431,120.131927 
	C356.862427,115.398056 357.084656,110.621773 360.829865,105.898880 
z"/>
<path fill="#C2970D" opacity="1.000000" stroke="none" 
	d="
M548.404907,110.775673 
	C546.670959,113.138893 544.816895,115.260422 544.184998,117.698677 
	C543.523865,120.249931 544.037292,123.105568 544.037292,126.417824 
	C540.645325,123.834206 540.176270,105.147087 543.373840,99.800392 
	C543.760071,103.696838 544.030762,106.428421 544.340942,109.557594 
	C548.776855,108.015038 553.802307,106.086319 557.007141,111.094521 
	C559.948975,115.691704 558.607117,120.929581 558.283630,125.887230 
	C557.482117,125.907402 556.680603,125.927582 555.879089,125.947754 
	C555.879089,123.013710 555.983826,120.075096 555.856262,117.146606 
	C555.622681,111.784241 554.369141,110.689552 548.404907,110.775673 
z"/>
<path fill="#C4980C" opacity="1.000000" stroke="none" 
	d="
M514.026001,124.284698 
	C506.501953,127.601288 500.322449,125.392784 498.804932,119.197258 
	C497.512054,113.918694 500.766418,108.875694 505.998322,108.050346 
	C511.796204,107.135696 515.654175,110.512199 516.412048,117.713310 
	C511.659637,117.713310 506.945099,117.713310 502.148956,117.713310 
	C502.939789,123.181976 506.241638,124.793739 511.629517,123.008812 
	C512.587219,122.691551 513.680237,122.782990 514.710754,122.685699 
	C514.581116,123.136467 514.451538,123.587242 514.026001,124.284698 
M501.754639,114.258995 
	C502.086395,114.818268 502.402313,115.851921 502.752319,115.863594 
	C506.337280,115.983139 509.927795,115.936821 513.516724,115.936821 
	C513.762817,115.522476 514.008911,115.108124 514.254944,114.693779 
	C512.559692,113.238731 510.883698,110.636139 509.164520,110.607269 
	C506.798431,110.567528 504.399628,112.474037 501.754639,114.258995 
z"/>
<path fill="#C4980C" opacity="1.000000" stroke="none" 
	d="
M415.732513,122.678665 
	C413.782227,123.942085 412.184235,125.320213 410.351654,125.797394 
	C405.776855,126.988640 401.335693,124.812805 399.453339,120.884270 
	C397.580780,116.976151 398.739380,112.280678 402.196381,109.767418 
	C405.811920,107.138885 411.343933,107.360832 414.696625,110.268944 
	C418.194336,113.302856 418.601349,117.150917 415.732513,122.678665 
M404.126221,122.467468 
	C409.928009,124.601677 414.806061,122.757614 414.742401,117.932625 
	C414.711761,115.612206 412.905701,112.077179 411.024445,111.341972 
	C408.820892,110.480812 404.945068,111.217133 403.075500,112.786438 
	C399.965057,115.397354 400.697235,119.042793 404.126221,122.467468 
z"/>
<path fill="#C7990C" opacity="1.000000" stroke="none" 
	d="
M439.287354,125.891357 
	C437.631989,125.667290 436.189819,124.890244 435.138000,125.251114 
	C428.079193,127.673058 423.266327,124.455948 423.173615,116.911171 
	C423.137238,113.945923 423.444244,110.976456 423.594849,108.008904 
	C424.394470,108.042236 425.194092,108.075569 425.993713,108.108902 
	C425.993713,111.121529 425.996704,114.134148 425.992889,117.146774 
	C425.988678,120.484528 426.939056,123.121094 430.823151,123.422646 
	C434.829254,123.733681 437.269501,121.781464 437.651428,117.857162 
	C437.962830,114.657768 437.714813,111.403931 437.714813,107.441452 
	C441.018005,110.089294 441.609711,120.367920 439.287354,125.891357 
z"/>
<path fill="#C2970D" opacity="1.000000" stroke="none" 
	d="
M214.877991,112.808640 
	C212.293549,118.450920 210.012619,123.818047 207.377228,129.005081 
	C205.007126,133.669968 201.632111,134.233810 197.200836,130.688751 
	C198.218597,130.494995 198.898087,130.373047 199.574387,130.235382 
	C201.198334,129.904831 203.716232,130.064774 204.241791,129.119568 
	C205.111313,127.555756 205.334061,125.040024 204.702408,123.345436 
	C202.848785,118.372482 200.440308,113.606339 198.911026,108.341835 
	C203.737885,111.628265 204.236542,117.738861 207.561127,122.611366 
	C209.979034,117.551140 212.296677,112.700722 214.614319,107.850296 
	C215.141678,108.025482 215.669037,108.200661 216.196381,108.375839 
	C215.806671,109.735580 215.416946,111.095329 214.877991,112.808640 
z"/>
<path fill="#C0970D" opacity="1.000000" stroke="none" 
	d="
M272.956055,120.840607 
	C272.884918,122.732391 272.813812,124.180031 272.763550,125.203255 
	C270.398926,125.438255 268.394379,125.725822 266.381287,125.811264 
	C264.577179,125.887833 262.467072,126.303825 261.032196,125.546494 
	C259.380402,124.674667 257.317291,122.695679 257.291840,121.166603 
	C257.267029,119.677101 259.322235,117.373192 260.943909,116.811211 
	C263.659332,115.870232 266.756012,116.029449 269.704742,115.724350 
	C268.961304,112.007347 268.961304,112.007347 257.640289,112.030716 
	C260.655060,108.299538 264.662964,108.159554 267.935242,109.520187 
	C270.115784,110.426872 271.558685,113.570473 272.841156,115.974625 
	C273.461700,117.137993 272.953339,118.903549 272.956055,120.840607 
M261.215393,123.383415 
	C267.570160,124.678497 269.506470,123.563133 269.684174,118.212791 
	C267.386292,118.212791 265.054260,117.944016 262.814362,118.283325 
	C260.226379,118.675362 258.965607,120.202248 261.215393,123.383415 
z"/>
<path fill="#C0970D" opacity="1.000000" stroke="none" 
	d="
M329.188477,111.910980 
	C327.958527,112.176575 327.087128,112.324265 325.066345,112.666756 
	C328.633362,108.338623 332.630005,108.151939 335.903900,109.508896 
	C338.091949,110.415794 340.073669,113.475357 340.749573,115.953011 
	C341.578003,118.989914 340.947052,122.424919 340.947052,125.184837 
	C338.292328,125.453239 336.284210,125.708000 334.268066,125.842941 
	C332.784088,125.942261 330.937744,126.443039 329.877380,125.774460 
	C328.003052,124.592613 325.713928,122.838951 325.330627,120.969475 
	C325.089203,119.791977 327.743683,117.261757 329.557465,116.605751 
	C332.065735,115.698570 335.005493,115.984489 338.277374,115.717247 
	C336.636658,110.534195 333.290588,110.716827 329.188477,111.910980 
M333.590332,118.043922 
	C332.762726,118.081062 331.732452,117.820564 331.149780,118.217369 
	C329.940002,119.041222 328.967712,120.213799 327.897797,121.243004 
	C329.247559,122.162590 330.491119,123.440369 331.982422,123.882584 
	C333.074188,124.206322 334.746796,123.771217 335.695038,123.056633 
	C336.737701,122.270912 337.247284,120.777794 337.989105,119.592880 
	C336.809784,119.076347 335.630432,118.559814 333.590332,118.043922 
z"/>
<path fill="#BE960D" opacity="1.000000" stroke="none" 
	d="
M294.110840,117.307388 
	C294.138580,113.035995 291.973969,111.419624 288.435791,111.457695 
	C284.658264,111.498344 282.593109,113.633606 282.245575,117.310036 
	C281.975433,120.168137 281.948700,123.049240 280.765900,125.935860 
	C278.824615,120.481834 279.353577,114.911064 279.427460,110.126762 
	C282.139160,109.778938 284.219910,109.722420 286.187195,109.220726 
	C292.380096,107.641380 296.844910,110.839767 296.999329,117.181953 
	C297.069580,120.068069 297.011200,122.957314 297.011200,125.845139 
	C296.239899,125.902130 295.468597,125.959122 294.697266,126.016121 
	C294.503876,123.264130 294.310455,120.512138 294.110840,117.307388 
z"/>
<path fill="#BE960D" opacity="1.000000" stroke="none" 
	d="
M317.978394,111.062431 
	C319.058014,116.098091 319.861450,120.836418 320.664886,125.574753 
	C320.062164,125.783615 319.459442,125.992470 318.856689,126.201332 
	C318.288788,125.497147 317.305328,124.834244 317.230530,124.081070 
	C317.001923,121.780098 317.072540,119.443382 317.119751,117.122459 
	C317.188538,113.740601 315.671387,111.697998 312.238403,111.495522 
	C308.948975,111.301514 306.152100,112.361229 305.568573,116.002579 
	C305.052490,119.222908 305.034088,122.523003 304.786591,125.916367 
	C301.987061,124.332115 301.267975,116.634338 302.805298,110.077164 
	C305.146881,109.778000 307.187592,109.199074 309.177826,109.338882 
	C312.038544,109.539864 314.862518,110.264175 317.978394,111.062431 
z"/>
<path fill="#C4980C" opacity="1.000000" stroke="none" 
	d="
M523.438171,118.498230 
	C526.411987,124.120789 527.044312,124.283173 536.312012,122.139145 
	C534.899292,125.446808 532.463196,126.666542 528.267517,125.922195 
	C523.832520,125.135368 521.035034,122.480690 520.588501,117.952484 
	C520.147766,113.483269 522.085632,110.061699 526.431946,108.619568 
	C530.365417,107.314415 534.164429,107.476707 536.689880,110.964989 
	C532.919800,111.265457 529.091248,111.017776 525.701721,112.120178 
	C524.395386,112.545052 524.087097,116.038628 523.438171,118.498230 
z"/>
<path fill="#DA9F09" opacity="1.000000" stroke="none" 
	d="
M490.200378,114.041306 
	C490.200500,118.265236 490.200500,122.002403 490.200500,125.739571 
	C489.582489,125.778671 488.964447,125.817764 488.346436,125.856865 
	C488.346436,119.086235 488.346436,112.315613 488.346436,105.388519 
	C484.616943,105.134125 481.958282,104.952774 479.299622,104.771423 
	C479.316254,104.375603 479.332886,103.979774 479.349518,103.583954 
	C485.775452,103.583954 492.201385,103.583954 498.627319,103.583954 
	C498.676147,103.927444 498.724945,104.270943 498.773773,104.614433 
	C496.191040,104.863564 493.608337,105.112694 490.200287,105.441429 
	C490.200287,108.082375 490.200287,110.818459 490.200378,114.041306 
z"/>
<path fill="#B9950E" opacity="1.000000" stroke="none" 
	d="
M396.336823,110.327850 
	C391.665588,111.042412 390.242249,113.954865 390.124542,117.843925 
	C390.043152,120.533241 390.108887,123.227013 388.960754,125.933929 
	C386.571350,120.173119 387.434174,114.250381 387.339630,109.115952 
	C390.029907,108.767242 392.057709,108.289719 394.071381,108.343231 
	C394.944336,108.366440 395.788239,109.483711 396.336823,110.327850 
z"/>
<path fill="#FCFCFC" opacity="1.000000" stroke="none" 
	d="
M104.167870,123.155640 
	C76.386757,130.649933 46.749222,113.816704 39.552834,85.062431 
	C30.448689,48.685413 58.400669,15.342781 95.878822,18.193491 
	C128.249924,20.655745 150.617706,52.603188 142.505676,84.251785 
	C137.313339,104.509300 124.717178,117.445045 104.167870,123.155640 
M112.318161,44.181793 
	C104.126686,36.375740 95.778709,36.426079 87.157867,43.532677 
	C85.787331,44.662479 83.858040,45.094864 82.400734,46.145920 
	C81.430099,46.845970 80.210472,48.052925 80.179756,49.065689 
	C79.980766,55.626717 80.077751,62.196720 80.077751,69.602638 
	C84.582314,67.252701 88.758690,65.615494 92.305130,63.092728 
	C97.216072,59.599335 101.326904,59.708942 106.041527,63.465229 
	C109.638954,66.331406 113.880814,68.388748 119.064194,71.556503 
	C119.064194,65.096863 118.611214,60.121777 119.184448,55.267891 
	C119.830170,49.800167 118.007332,46.406193 112.318161,44.181793 
M85.327362,99.114021 
	C86.599976,99.894951 88.047211,100.489006 89.116226,101.487839 
	C95.049973,107.032074 100.416565,105.407959 107.324631,102.240868 
	C116.118706,98.209106 118.353172,92.864281 118.496941,83.635284 
	C118.619431,75.772690 116.505791,71.355637 109.703873,68.282341 
	C106.222885,66.709541 103.076683,64.395805 98.447929,61.618053 
	C98.447929,69.107582 98.717773,74.936951 98.290840,80.714828 
	C98.154861,82.554962 96.566765,84.901016 94.952461,85.904503 
	C89.977669,88.996925 84.669167,91.552513 78.692848,94.742302 
	C81.223976,96.411453 82.968117,97.561623 85.327362,99.114021 
M90.320984,85.811104 
	C91.982460,84.828835 93.643944,83.846565 96.111450,82.387772 
	C90.923370,79.164055 86.582130,76.169479 81.961418,73.697266 
	C78.751663,71.979958 77.499634,69.907204 77.728775,66.216164 
	C78.080559,60.549759 77.821236,54.845417 77.821236,49.064171 
	C65.849236,53.631477 54.865242,57.673889 57.430340,74.073891 
	C58.291210,79.577858 59.649124,82.289825 63.848942,85.773140 
	C72.855331,93.242996 80.943756,93.190971 90.320984,85.811104 
z"/>
<path fill="#7e3b01" opacity="1.000000" stroke="none" 
	d="
M112.614784,44.404392 
	C118.007332,46.406193 119.830170,49.800167 119.184448,55.267891 
	C118.611214,60.121777 119.064194,65.096863 119.064194,71.556503 
	C113.880814,68.388748 109.638954,66.331406 106.041527,63.465229 
	C101.326904,59.708942 97.216072,59.599335 92.305130,63.092728 
	C88.758690,65.615494 84.582314,67.252701 80.077751,69.602638 
	C80.077751,62.196720 79.980766,55.626717 80.179756,49.065689 
	C80.210472,48.052925 81.430099,46.845970 82.400734,46.145920 
	C83.858040,45.094864 85.787331,44.662479 87.157867,43.532677 
	C95.778709,36.426079 104.126686,36.375740 112.614784,44.404392 
z"/>
<path fill="#7e3b01" opacity="1.000000" stroke="none" 
	d="
M85.019814,98.912903 
	C82.968117,97.561623 81.223976,96.411453 78.692848,94.742302 
	C84.669167,91.552513 89.977669,88.996925 94.952461,85.904503 
	C96.566765,84.901016 98.154861,82.554962 98.290840,80.714828 
	C98.717773,74.936951 98.447929,69.107582 98.447929,61.618053 
	C103.076683,64.395805 106.222885,66.709541 109.703873,68.282341 
	C116.505791,71.355637 118.619431,75.772690 118.496941,83.635284 
	C118.353172,92.864281 116.118706,98.209106 107.324631,102.240868 
	C100.416565,105.407959 95.049973,107.032074 89.116226,101.487839 
	C88.047211,100.489006 86.599976,99.894951 85.019814,98.912903 
z"/>
<path fill="#7e3b01" opacity="1.000000" stroke="none" 
	d="
M89.979126,85.960007 
	C80.943756,93.190971 72.855331,93.242996 63.848942,85.773140 
	C59.649124,82.289825 58.291210,79.577858 57.430340,74.073891 
	C54.865242,57.673889 65.849236,53.631477 77.821236,49.064171 
	C77.821236,54.845417 78.080559,60.549759 77.728775,66.216164 
	C77.499634,69.907204 78.751663,71.979958 81.961418,73.697266 
	C86.582130,76.169479 90.923370,79.164055 96.111450,82.387772 
	C93.643944,83.846565 91.982460,84.828835 89.979126,85.960007 
z"/>
</svg>
