<svg version="1.1" id="Layer_1" xmlns="http://www.w3.org/2000/svg" xmlns:xlink="http://www.w3.org/1999/xlink" x="0px" y="0px"
	 width="100%" viewBox="0 0 636 636" enable-background="new 0 0 636 636" xml:space="preserve">
<path fill="#BEA00B" opacity="1.000000" stroke="none" 
	d="
M213.000000,577.165039 
	C197.987106,577.389893 183.476837,577.515747 169.740280,571.724976 
	C142.247055,560.135010 126.535332,539.157410 120.130463,510.350281 
	C104.827011,441.520111 89.230965,372.755035 73.809914,303.950928 
	C66.408661,270.928772 81.355743,236.674591 110.460846,218.895248 
	C123.970253,210.642822 138.638504,207.299255 154.232285,207.158447 
	C161.364853,207.094055 168.498489,207.147507 176.291687,207.147507 
	C176.291687,204.819397 176.237305,202.887070 176.300217,200.958572 
	C176.831696,184.669418 175.924911,168.172989 178.210587,152.132141 
	C184.527939,107.797409 222.304947,69.905067 266.580505,62.105301 
	C274.081451,60.783905 281.790253,60.156677 289.410889,60.088406 
	C316.070648,59.849552 342.733948,59.947918 369.395721,60.005772 
	C425.222351,60.126911 470.399353,97.525696 480.536163,152.319077 
	C482.010986,160.291000 482.252411,168.537369 482.519379,176.674622 
	C482.845795,186.624313 482.597107,196.592880 482.597107,207.147522 
	C490.325623,207.147522 497.608490,207.121948 504.891052,207.152725 
	C521.250305,207.221863 536.509277,211.153442 550.288269,220.202271 
	C579.340820,239.281418 592.408264,272.172424 584.603577,306.770630 
	C569.124084,375.391510 553.611572,444.004913 538.095581,512.617554 
	C530.026672,548.298767 504.464752,571.879944 468.433563,576.727905 
	C464.165619,577.302185 459.785156,577.147644 455.456787,577.148804 
	C374.804535,577.170715 294.152252,577.164978 213.000000,577.165039 
M208.500549,547.415405 
	C290.333466,547.415405 372.166382,547.416260 453.999298,547.410522 
	C456.331573,547.410339 458.667847,547.414246 460.995514,547.290039 
	C485.289185,545.993591 503.449982,530.888062 508.806610,507.187378 
	C524.463379,437.913147 540.059021,368.624969 555.581970,299.320648 
	C561.320129,273.701843 548.664124,249.715942 524.558350,240.270599 
	C511.069305,234.985199 496.978912,237.613235 482.850372,236.967270 
	C482.850372,247.740021 482.850372,257.986023 482.850372,268.835205 
	C484.715240,268.835205 486.332581,268.831818 487.949921,268.835785 
	C494.782898,268.852539 501.621277,268.708649 508.447418,268.934296 
	C515.652527,269.172455 520.946838,274.069244 522.147583,281.148682 
	C523.845154,291.157379 516.977051,298.510651 505.536713,298.553741 
	C480.370483,298.648560 455.203644,298.586731 430.037048,298.572693 
	C428.708374,298.571930 427.371857,298.487732 426.052368,298.330231 
	C417.818451,297.347565 412.589508,291.275543 412.833740,283.023071 
	C413.070068,275.037476 419.022064,269.104523 427.317230,268.897186 
	C434.312927,268.722290 441.316193,268.863647 448.315826,268.818695 
	C449.735016,268.809570 451.152863,268.593170 452.426697,268.484619 
	C452.426697,257.702881 452.426697,247.462036 452.426697,237.406433 
	C370.145325,237.406433 288.245819,237.406433 206.539459,237.406433 
	C206.539459,248.048233 206.539459,258.284027 206.539459,268.874634 
	C215.260025,268.874634 223.578278,268.708405 231.886810,268.921387 
	C240.203323,269.134583 246.130844,275.555756 246.101608,283.863007 
	C246.070221,292.789215 239.494049,298.538452 228.980881,298.563568 
	C203.981094,298.623322 178.981064,298.590698 153.981155,298.569550 
	C152.321304,298.568146 150.648712,298.444000 149.004089,298.217133 
	C140.754898,297.079163 135.198837,289.458344 136.625580,281.306824 
	C137.945587,273.765259 143.352829,269.031982 151.223801,268.891144 
	C159.476410,268.743500 167.733704,268.858124 175.961029,268.858124 
	C175.961029,257.815063 175.961029,247.579117 175.961029,237.004456 
	C168.311462,237.004456 161.003738,236.983826 153.696167,237.007950 
	C119.337059,237.121414 95.840332,266.106110 103.312645,299.501343 
	C118.820564,368.809326 134.458130,438.088379 150.143906,507.356354 
	C154.137207,524.990601 164.369247,538.046570 181.520004,543.952026 
	C189.617844,546.740356 198.806656,546.360291 208.500549,547.415405 
M214.908951,134.525757 
	C212.575348,141.085083 208.798294,147.514618 208.194443,154.229492 
	C206.723114,170.590683 206.712952,187.083817 206.152496,203.525116 
	C206.114853,204.629227 206.395477,205.744202 206.518784,206.776291 
	C288.683258,206.776291 370.552887,206.776291 452.213013,206.776291 
	C452.213013,193.114349 452.966461,179.774857 452.075775,166.546036 
	C449.063385,121.803772 414.323761,89.856155 369.398499,89.853004 
	C342.908112,89.851143 316.417389,89.764114 289.927460,89.874977 
	C256.524292,90.014778 231.662262,104.824005 214.908951,134.525757 
z"/>
</svg>
